<svg width="52" height="52" viewBox="0 0 52 52" fill="none" xmlns="http://www.w3.org/2000/svg">
<path d="M21.6667 36.7251H13.4551C6.15339 36.7251 4.33339 34.9051 4.33339 27.6034V14.6034C4.33339 7.30175 6.15339 5.48175 13.4551 5.48175H36.27C43.5717 5.48175 45.3917 7.30175 45.3917 14.6034" stroke="#F5ECFF" stroke-width="2.5" stroke-linecap="round" stroke-linejoin="round"/>
<path d="M21.6666 46.5184V36.725" stroke="#F5ECFF" stroke-width="2.5" stroke-linecap="round" stroke-linejoin="round"/>
<path d="M4.33339 28.0583H21.6667" stroke="#F5ECFF" stroke-width="2.5" stroke-linecap="round" stroke-linejoin="round"/>
<path d="M14.6033 46.5182H21.6667" stroke="#F5ECFF" stroke-width="2.5" stroke-linecap="round" stroke-linejoin="round"/>
<path d="M47.6667 27.7334V40.1051C47.6667 45.2401 46.3884 46.5184 41.2534 46.5184H33.5617C28.4267 46.5184 27.1484 45.2401 27.1484 40.1051V27.7334C27.1484 22.5984 28.4267 21.3201 33.5617 21.3201H41.2534C46.3884 21.3201 47.6667 22.5984 47.6667 27.7334Z" stroke="#F5ECFF" stroke-width="2.5" stroke-linecap="round" stroke-linejoin="round"/>
<path d="M37.363 39.5417H37.3825" stroke="#F5ECFF" stroke-width="2.5" stroke-linecap="round" stroke-linejoin="round"/>
</svg>
