<svg width="20" height="20" viewBox="0 0 20 20" fill="none" xmlns="http://www.w3.org/2000/svg">
<path d="M0 20L1.41793 14.8691C0.546693 13.3639 0.0891652 11.6568 0.0914025 9.91964C0.0813126 4.44549 4.54698 0 10.0353 0C12.699 0 15.2001 1.02806 17.0834 2.9034C18.0116 3.82266 18.7474 4.91616 19.248 6.12054C19.7487 7.32492 20.0043 8.61623 19.9999 9.91964C19.9999 15.3832 15.5343 19.8287 10.0454 19.8287C8.37461 19.8287 6.7442 19.4151 5.28592 18.6192L0 20ZM5.51917 16.8349L5.82305 17.0162C7.09856 17.7676 8.55322 18.1644 10.0353 18.1654C14.5924 18.1654 18.309 14.4662 18.309 9.9291C18.309 7.73176 17.4484 5.65554 15.8886 4.1034C15.1216 3.33553 14.2095 2.72636 13.2049 2.31101C12.2003 1.89565 11.1231 1.68232 10.0353 1.68331C5.46813 1.6839 1.75267 5.38316 1.75267 9.92023C1.75267 11.4724 2.18832 12.995 3.01866 14.3055L3.21096 14.618L2.37053 17.662L5.51976 16.8354L5.51917 16.8349Z" fill="white"/>
<path fill-rule="evenodd" clip-rule="evenodd" d="M7.55436 5.76662C7.37215 5.35303 7.16976 5.34298 6.99764 5.34298C6.8457 5.33294 6.68307 5.33294 6.51095 5.33294C6.34951 5.33294 6.0759 5.39321 5.84324 5.64549C5.60998 5.89719 4.97254 6.49217 4.97254 7.71167C4.97254 8.93176 5.86341 10.1111 5.98509 10.2724C6.10617 10.4337 7.7063 13.0139 10.2383 14.0124C12.3441 14.839 12.7696 14.6777 13.2255 14.6269C13.6807 14.5767 14.6939 14.0325 14.9063 13.4476C15.1087 12.8733 15.1087 12.3693 15.0482 12.2682C14.9876 12.1678 14.8149 12.1069 14.5722 11.9758C14.3187 11.8552 13.1038 11.2502 12.8711 11.1693C12.6379 11.0889 12.4759 11.0487 12.3138 11.2904C12.1518 11.5427 11.6758 12.0969 11.5244 12.2582C11.382 12.4195 11.2306 12.4396 10.9873 12.3185C10.7345 12.1979 9.93439 11.9356 8.98238 11.0889C8.24285 10.4331 7.74666 9.61713 7.59472 9.37548C7.45346 9.12319 7.57454 8.99202 7.7063 8.8709C7.81789 8.76041 7.95974 8.57902 8.08141 8.43781C8.20249 8.29601 8.24285 8.18552 8.33425 8.02422C8.41497 7.86292 8.37461 7.71167 8.31407 7.59114C8.25294 7.48006 7.77753 6.25997 7.55436 5.76603V5.76662Z" fill="white"/>
</svg>
